HIERARCHY
ROOT hip
{
	OFFSET 0.000000 0.000000 0.000000 
	CHANNELS 6 Xposition Yposition Zposition Xrotation Zrotation Yrotation
	JOINT abdomen
	{
		OFFSET 0.000000 3.402643 0.000000 
		CHANNELS 3 Xrotation Zrotation Yrotation
		JOINT chest
		{
			OFFSET 0.000000 8.438565 -0.680529 
			CHANNELS 3 Xrotation Zrotation Yrotation
			JOINT neck
			{
				OFFSET 0.000000 10.207942 -0.272212 
				CHANNELS 3 Xrotation Zrotation Yrotation
				JOINT head
				{
					OFFSET 0.000000 3.130431 0.000000 
					CHANNELS 3 Xrotation Zrotation Yrotation
					End Site
					{
						OFFSET 0.000000 3.130435 0.000000 
					}
				}
			}
			JOINT lCollar
			{
				OFFSET 3.470700 6.669187 -0.816635 
				CHANNELS 3 Yrotation Zrotation Xrotation
				JOINT lShldr
				{
					OFFSET 3.198488 0.000000 0.000000 
					CHANNELS 3 Zrotation Yrotation Xrotation
					JOINT lForeArm
					{
						OFFSET 10.139888 0.000000 0.000000 
						CHANNELS 3 Yrotation Zrotation Xrotation
						JOINT lHand
						{
							OFFSET 8.370511 0.000000 0.000000 
							CHANNELS 3 Zrotation Yrotation Xrotation
							End Site
							{
								OFFSET 4.083176 0.000000 0.000000 
							}
						}
					}
				}
			}
			JOINT rCollar
			{
				OFFSET -3.470700 6.669187 -0.816635 
				CHANNELS 3 Yrotation Zrotation Xrotation
				JOINT rShldr
				{
					OFFSET -3.198488 0.000000 0.000000 
					CHANNELS 3 Zrotation Yrotation Xrotation
					JOINT rForeArm
					{
						OFFSET -10.139888 0.000000 0.000000 
						CHANNELS 3 Yrotation Zrotation Xrotation
						JOINT rHand
						{
							OFFSET -8.370511 0.000000 0.000000 
							CHANNELS 3 Zrotation Yrotation Xrotation
							End Site
							{
								OFFSET -4.083176 0.000000 0.000000 
							}
						}
					}
				}
			}
		}
	}
	JOINT lThigh
	{
		OFFSET 5.308129 -1.633274 1.361059 
		CHANNELS 3 Xrotation Zrotation Yrotation
		JOINT lShin
		{
			OFFSET -2.041588 -20.007561 0.000000 
			CHANNELS 3 Xrotation Zrotation Yrotation
			JOINT lFoot
			{
				OFFSET 0.000000 -19.190928 -1.224953 
				CHANNELS 3 Xrotation Yrotation Zrotation
				End Site
				{
					OFFSET 0.000000 -2.449906 4.627600 
				}
			}
		}
	}
	JOINT rThigh
	{
		OFFSET -5.308129 -1.633274 1.361059 
		CHANNELS 3 Xrotation Zrotation Yrotation
		JOINT rShin
		{
			OFFSET 2.041588 -20.007561 0.000000 
			CHANNELS 3 Xrotation Zrotation Yrotation
			JOINT rFoot
			{
				OFFSET 0.000000 -19.190928 -1.224953 
				CHANNELS 3 Xrotation Yrotation Zrotation
				End Site
				{
					OFFSET 0.000000 -2.449906 4.627600 
				}
			}
		}
	}
}
MOTION
Frames: 8
Frame Time: 0.033333
1.336015 50.216732 -2.236384 1.292961 -2.127326 -2.208771 0.000000 0.000000 0.000000 -0.034722 -2.363239 -0.342312 1.261321 0.146254 -3.212880 9.805767 0.468387 -2.255864 -7.767180 -5.282680 0.068343 -55.539684 14.240299 6.417125 -44.079205 -5.581356 -2.741415 0.407034 14.832533 -3.615333 11.436774 15.489141 -0.807418 44.392002 -20.924049 -3.598795 56.639378 7.264442 0.858280 -13.953031 -3.876328 -3.459629 -14.926033 9.117088 4.841993 32.391716 1.145551 11.796640 -16.246466 1.461186 -10.200556 -9.840699 -12.251371 -3.613641 22.246567 -0.361208 0.021272 -12.426941 -1.456152 13.154461 
1.150149 50.263939 -2.288109 1.625549 -1.473647 -2.071134 0.000000 0.000000 0.000000 0.124032 -2.705027 -0.352093 1.476373 -0.204754 -3.222705 9.793426 0.526924 -2.285239 -7.333681 -5.582854 0.205281 -54.619251 17.258888 4.037847 -43.046852 -5.259308 -3.438739 1.823451 14.181175 -3.476453 10.755208 14.610275 -0.477736 45.862934 -23.419132 -5.806847 56.233055 6.764100 -0.993415 -14.779341 -3.090221 -3.535343 -14.919566 8.924113 5.041008 31.576576 0.741452 11.616652 -15.771638 1.405146 -10.066067 -11.902849 -12.566498 -4.298571 25.437527 0.205121 -2.238071 -13.013448 -1.351915 11.471837 
0.971277 50.329330 -2.296048 1.867335 -0.653939 -1.894742 0.000000 0.000000 0.000000 0.231887 -3.027296 -0.322847 1.746520 -0.507053 -3.134902 10.030377 0.468387 -2.255864 -6.775842 -5.516625 0.322278 -53.794579 19.579855 0.833092 -41.791180 -4.829462 -5.517913 2.880196 13.664228 -3.388674 10.331852 13.537523 -0.207592 46.378059 -25.868790 -7.713249 55.780518 6.226723 -2.506751 -14.505389 -2.648921 -3.590213 -14.567800 8.709154 5.380146 30.480989 0.053422 11.068782 -15.261959 1.324957 -9.768204 -13.259597 -13.678931 -5.842617 26.929251 1.229923 -4.897942 -12.484780 -1.147141 10.407146 
0.728088 50.340092 -2.362881 2.384265 0.361233 -1.318333 0.000000 0.000000 0.000000 0.194677 -3.359253 -0.489159 1.768100 -1.072591 -3.155023 10.406992 0.341552 -2.167989 -6.406441 -5.920342 0.282947 -51.813229 21.186819 -2.108113 -40.394402 -4.522125 -7.710209 3.589047 12.457911 -3.345306 9.660970 12.236267 -0.060591 46.602997 -27.207214 -10.778657 54.324806 5.465351 -2.030821 -13.310900 -2.512250 -3.598886 -14.785380 8.310863 5.539862 29.621988 -0.587975 10.194239 -14.794429 1.230487 -9.423901 -14.781168 -15.297696 -6.285264 27.341448 1.288752 -6.479628 -11.341158 -1.082205 10.496808 
0.412290 50.270370 -2.381685 2.585828 1.747563 -1.348221 0.000000 0.000000 0.000000 0.223931 -3.974609 0.009742 1.933730 -1.609427 -2.784573 10.613338 0.048791 -2.226562 -5.265338 -5.795894 0.371572 -49.673336 21.581800 -4.964333 -38.678886 -4.078521 -7.871072 3.444703 11.634240 -3.360466 9.308072 10.345489 0.262968 46.272434 -28.272770 -13.275520 52.283936 4.843809 -2.150928 -16.530087 -3.097409 -3.550743 -14.668471 7.568910 5.655521 29.123121 -1.036829 10.429681 -14.450568 1.237149 -9.686996 -14.225304 -16.997049 -6.309509 25.084593 1.200678 -5.769229 -9.928965 -1.186457 13.667374 
0.030683 50.191811 -2.401965 2.504969 3.142864 -1.867782 0.000000 0.000000 0.000000 0.247996 -4.618922 0.557978 2.644546 -2.147087 -2.032750 10.318403 0.107352 -2.060543 -3.729913 -5.803459 0.490661 -46.822330 21.406826 -7.952161 -36.153313 -3.491684 -7.386050 2.873459 11.136466 -3.417480 9.307361 8.822702 0.505627 44.146221 -29.176649 -14.019011 50.149982 4.957026 -5.601889 -17.252066 -2.551873 -3.624317 -14.241067 6.626847 5.485770 28.537012 -1.078457 11.453650 -13.969867 1.290532 -10.392469 -15.290568 -18.316732 -5.825101 27.179167 0.887634 -4.007377 -11.454972 -1.363069 13.332036 
-0.402892 50.239429 -2.460488 2.192104 3.454509 -2.191173 0.000000 0.000000 0.000000 0.656492 -4.452634 0.851594 3.194162 -2.020875 -1.407441 10.264570 -0.029283 -1.757817 -2.826501 -5.076699 0.950145 -44.064957 20.677666 -10.655187 -33.446651 -3.127372 -9.042080 3.598694 10.792967 -3.373945 9.094156 8.419197 0.924618 41.594326 -29.315203 -15.823174 48.110176 4.669471 -8.038962 -17.766777 -1.883751 -3.723978 -13.483225 6.531507 5.268102 27.401510 -0.628340 12.356328 -12.991339 1.297512 -11.204471 -15.409035 -17.986626 -5.808405 27.941542 0.975401 -6.043049 -11.537726 -1.356781 13.023279 
-0.888190 50.334541 -2.587681 2.445317 2.498590 -1.925405 0.000000 0.000000 0.000000 0.648617 -3.202935 0.625660 3.541036 -1.406021 -1.035563 10.496551 -0.351465 -1.347691 -2.751758 -3.418913 1.026436 -42.287880 20.649033 -13.658883 -31.683222 -2.684795 -11.246593 4.891169 11.153612 -3.267460 8.569471 8.513236 0.828985 38.910095 -29.332760 -17.741570 46.514820 4.164512 -8.961710 -17.522856 -1.579587 -3.761724 -13.601675 7.616055 4.947656 26.666166 0.034236 12.421984 -12.191343 1.246737 -11.893414 -15.398076 -16.198256 -5.278522 27.097692 0.937190 -5.957778 -11.254546 -1.233144 12.370900 
